Genre:Drama
Language:English  http://www.imdb.com/title/tt1497617/
Source:DVD
Subtitles:Romana


Format : AVI
Format/Info : Audio Video Interleave
File size : 917 MiB
Duration : 1h 27mn
Overall bit rate : 1 473 Kbps


Video
Codec ID/Hint : XviD
Duration : 1h 27mn
Bit rate : 1 016 Kbps
Width : 720 pixels
Height : 384 pixels
Display aspect ratio : 1.875
Frame rate : 23.976 fps
Color space : YUV
Chroma subsampling : 4:2:0
Bit depth : 8 bits
Scan type : Progressive
Bits/(Pixel*Frame) : 0.153
Stream size : 632 MiB (69%)
Writing library : XviD 1.2.1 (UTC 2008-12-04)

Audio
ID : 1
Format : AC-3
Format/Info : Audio Coding 3
Mode extension : CM (complete main)
Codec ID : 2000
Duration : 1h 27mn
Bit rate mode : Constant
Bit rate : 448 Kbps
Channel(s) : 6 channels
Channel positions : Front: L C R, Side: L R, LFE
Sampling rate : 48.0 KHz
Bit depth : 16 bits
Stream size : 279 MiB (30%)
Alignment : Split accross interleaves
Interleave, duration : 42 ms (1.00 video frame)
Interleave, preload duration : 500 ms


Plot:
3500 years ago, God wrote the Ten Commandments. Over time, they were forgotten. It pays to remember... I AM
 
http://shareimage.org/images/fwymxez951qp3q12xjrg.png 
http://shareimage.org/images/c3vnwr1ooyfnm3w62spd.png 
http://shareimage.org/images/7eyjfswiwm5l8uu891b.png 
http://shareimage.org/images/cvj25crix24dnuznswfn.png